<?xml version="1.0" encoding="utf-8"?>
<!-- Generator: Adobe Illustrator 18.1.1, SVG Export Plug-In . SVG Version: 6.00 Build 0)  -->
<!DOCTYPE svg PUBLIC "-//W3C//DTD SVG 1.1//EN" "http://www.w3.org/Graphics/SVG/1.1/DTD/svg11.dtd">
<svg version="1.1" id="Layer_1" xmlns="http://www.w3.org/2000/svg" xmlns:xlink="http://www.w3.org/1999/xlink" x="0px" y="0px"
	 width="256px" height="256px" viewBox="0 0 256 256" enable-background="new 0 0 256 256" xml:space="preserve">
<g>
	
		<image overflow="visible" opacity="0.75" width="1509" height="1739" xlink:href="4C35ED639C0C3F8E.png"  transform="matrix(0.24 0 0 0.24 -79.44 -80.749)">
	</image>
	<g>
		<path fill="#FFFFFF" d="M109.1,126.9c0-52.1,37.6-95.4,87.1-104.2c-19.4-12.4-42.4-19.5-67-19.5C60.3,3.2,4.5,59,4.5,127.9
			s55.8,124.7,124.7,124.7c25.7,0,49.6-7.8,69.5-21.1C147.9,223.6,109.1,179.8,109.1,126.9z"/>
	</g>
</g>
<g>
	
		<image overflow="visible" opacity="0.75" width="1303" height="1569" xlink:href="4C35ED639C0C3F92.png"  transform="matrix(0.24 0 0 0.24 25.1616 -61.2173)">
	</image>
	<g>
		<path d="M253.9,127.9c0-44.2-23-83-57.7-105.2c-49.5,8.8-87.1,52.1-87.1,104.2c0,52.9,38.8,96.8,89.6,104.6
			C231.9,209.1,253.9,171,253.9,127.9z"/>
	</g>
</g>
<g>
	<text transform="matrix(1 0 0 1 128.2947 154.5469)" fill="#FFFFFF" font-family="'Baskerville-Italic'" font-size="43.8804">Lucien.</text>
</g>
<g>
	<text transform="matrix(1 0 0 1 136.0315 116.5098)" fill="#FFFFFF" font-family="'Baskerville-Italic'" font-size="46.9965">Chez</text>
</g>
</svg>
